<?xml version="1.0" encoding="UTF-8"?>
<svg width="20px" height="20px" viewBox="0 0 20 20" version="1.1" xmlns="http://www.w3.org/2000/svg" xmlns:xlink="http://www.w3.org/1999/xlink">
    <g id="u-plugin-form" stroke="none" stroke-width="1">
        <path d="M16,0 C18.209139,0 20,1.790861 20,4 L20,16 C20,18.209139 18.209139,20 16,20 L4,20 C1.790861,20 0,18.209139 0,16 L0,4 C0,1.790861 1.790861,0 4,0 L16,0 Z M16,2 L4,2 C2.8954305,2 2,2.8954305 2,4 L2,16 C2,17.1045695 2.8954305,18 4,18 L16,18 C17.1045695,18 18,17.1045695 18,16 L18,4 C18,2.8954305 17.1045695,2 16,2 Z M9.23076923,4.35897436 C9.9388266,4.35897436 10.5128205,4.93296827 10.5128205,5.64102564 L10.5128205,6.41025641 L12.5641026,6.41025641 C12.8361195,6.4102564 13.0969953,6.5183147 13.2893403,6.71065971 C13.4816853,6.90300471 13.5897436,7.16388052 13.5897436,7.43589744 L13.5897436,9.48717948 L14.3589744,9.48717948 C15.0670317,9.48717949 15.6410256,10.0611734 15.6410256,10.7692308 C15.6410256,11.4772881 15.0670317,12.051282 14.3589744,12.0512821 L13.5897436,12.0512821 L13.5897436,14.1025641 C13.5897436,14.374581 13.4816853,14.6354568 13.2893403,14.8278018 C13.0969953,15.0201468 12.8361195,15.1282051 12.5641026,15.1282051 L10.6153846,15.1282051 L10.6153846,14.3589744 C10.6153846,13.5897436 10,12.974359 9.23076923,12.974359 C8.46153846,12.974359 7.84615385,13.5897436 7.84615385,14.3589744 L7.84615385,15.1282051 L5.8974359,15.1282051 C5.62541899,15.1282051 5.36454317,15.0201468 5.17219817,14.8278018 C4.97985316,14.6354568 4.87179487,14.374581 4.87179487,14.1025641 L4.87179487,12.1538462 L5.64102564,12.1538462 C6.41025641,12.1538462 7.02564102,11.5384615 7.02564102,10.7692308 C7.02564102,10 6.41025641,9.38461538 5.64102564,9.38461538 L4.87179487,9.38461538 L4.87179487,7.43589744 C4.87179487,7.16388052 4.97985316,6.90300471 5.17219817,6.71065971 C5.36454317,6.5183147 5.62541899,6.4102564 5.8974359,6.41025641 L7.94871794,6.41025641 L7.94871794,5.64102564 C7.94871795,4.93296827 8.52271186,4.35897436 9.23076923,4.35897436 Z" id="Shape"></path>
    </g>
</svg>